<?xml version="1.0" encoding="UTF-8"?>
<svg width="78px" height="30px" viewBox="0 0 78 30" version="1.1" xmlns="http://www.w3.org/2000/svg" xmlns:xlink="http://www.w3.org/1999/xlink">
    <!-- Generator: Sketch 55 (78076) - https://sketchapp.com -->
    <title>80%</title>
    <desc>Created with Sketch.</desc>
    <g id="Plugin-HeartBeat" stroke="none" stroke-width="1" fill="none" fill-rule="evenodd">
        <g id="More-Optimization-V2" transform="translate(-218.000000, -784.000000)" fill="#FFFFFF" fill-rule="nonzero">
            <path d="M223.835938,804.777344 C223.835938,806.17058 224.197262,807.251298 224.919922,808.019531 C225.642582,808.787764 226.641921,809.171875 227.917969,809.171875 C229.194017,809.171875 230.193356,808.787764 230.916016,808.019531 C231.638675,807.251298 232,806.17058 232,804.777344 C232,803.332024 231.632165,802.23503 230.896484,801.486328 C230.160804,800.737626 229.167975,800.363281 227.917969,800.363281 C226.667962,800.363281 225.675134,800.737626 224.939453,801.486328 C224.203772,802.23503 223.835938,803.332024 223.835938,804.777344 Z M218.054688,805.148438 C218.054688,803.559888 218.416012,802.1211 219.138672,800.832031 C219.861332,799.542962 220.919264,798.57292 222.3125,797.921875 C220.945306,797.010412 220.056643,796.024094 219.646484,794.962891 C219.236326,793.901687 219.03125,792.908859 219.03125,791.984375 C219.03125,789.927073 219.805982,788.172533 221.355469,786.720703 C222.904956,785.268873 225.092434,784.542969 227.917969,784.542969 C230.743504,784.542969 232.930982,785.268873 234.480469,786.720703 C236.029956,788.172533 236.804688,789.927073 236.804688,791.984375 C236.804688,792.908859 236.599611,793.901687 236.189453,794.962891 C235.779295,796.024094 234.890632,796.945309 233.523438,797.726562 C234.916674,798.507816 235.96484,799.542962 236.667969,800.832031 C237.371097,802.1211 237.722656,803.559888 237.722656,805.148438 C237.722656,807.531262 236.840504,809.559236 235.076172,811.232422 C233.31184,812.905607 230.847672,813.742188 227.683594,813.742188 C224.519515,813.742188 222.123706,812.905607 220.496094,811.232422 C218.868481,809.559236 218.054688,807.531262 218.054688,805.148438 Z M224.34375,792.609375 C224.34375,793.638026 224.659502,794.477861 225.291016,795.128906 C225.922529,795.779951 226.798171,796.105469 227.917969,796.105469 C229.050787,796.105469 229.926429,795.779951 230.544922,795.128906 C231.163415,794.477861 231.472656,793.638026 231.472656,792.609375 C231.472656,791.489578 231.163415,790.613935 230.544922,789.982422 C229.926429,789.350908 229.050787,789.035156 227.917969,789.035156 C226.798171,789.035156 225.922529,789.350908 225.291016,789.982422 C224.659502,790.613935 224.34375,791.489578 224.34375,792.609375 Z M246.179688,799.113281 C246.179688,802.368506 246.446612,804.858715 246.980469,806.583984 C247.514326,808.309253 248.608065,809.171875 250.261719,809.171875 C251.915373,809.171875 252.999346,808.309253 253.513672,806.583984 C254.027997,804.858715 254.285156,802.368506 254.285156,799.113281 C254.285156,795.701806 254.027997,793.175789 253.513672,791.535156 C252.999346,789.894523 251.915373,789.074219 250.261719,789.074219 C248.608065,789.074219 247.514326,789.894523 246.980469,791.535156 C246.446612,793.175789 246.179688,795.701806 246.179688,799.113281 Z M250.261719,784.484375 C253.868508,784.484375 256.397779,785.753894 257.849609,788.292969 C259.30144,790.832044 260.027344,794.438779 260.027344,799.113281 C260.027344,803.787784 259.30144,807.388008 257.849609,809.914062 C256.397779,812.440117 253.868508,813.703125 250.261719,813.703125 C246.65493,813.703125 244.125658,812.440117 242.673828,809.914062 C241.221998,807.388008 240.496094,803.787784 240.496094,799.113281 C240.496094,794.438779 241.221998,790.832044 242.673828,788.292969 C244.125658,785.753894 246.65493,784.484375 250.261719,784.484375 Z M269.675781,795.1875 C270.535161,795.1875 271.267575,794.884769 271.873047,794.279297 C272.478519,793.673825 272.78125,792.941411 272.78125,792.082031 C272.78125,791.222652 272.478519,790.490237 271.873047,789.884766 C271.267575,789.279294 270.535161,788.976562 269.675781,788.976562 C268.816402,788.976562 268.083987,789.279294 267.478516,789.884766 C266.873044,790.490237 266.570312,791.222652 266.570312,792.082031 C266.570312,792.941411 266.873044,793.673825 267.478516,794.279297 C268.083987,794.884769 268.816402,795.1875 269.675781,795.1875 Z M276.941406,792.082031 C276.941406,794.08725 276.235033,795.799472 274.822266,797.21875 C273.409498,798.638028 271.694021,799.347656 269.675781,799.347656 C267.670563,799.347656 265.95834,798.638028 264.539062,797.21875 C263.119785,795.799472 262.410156,794.08725 262.410156,792.082031 C262.410156,790.076813 263.119785,788.36459 264.539062,786.945312 C265.95834,785.526035 267.670563,784.816406 269.675781,784.816406 C271.681,784.816406 273.393222,785.526035 274.8125,786.945312 C276.231778,788.36459 276.941406,790.076813 276.941406,792.082031 Z M291.765625,806.300781 C291.765625,805.441402 291.462894,804.708987 290.857422,804.103516 C290.25195,803.498044 289.519536,803.195312 288.660156,803.195312 C287.800777,803.195312 287.068362,803.498044 286.462891,804.103516 C285.857419,804.708987 285.554688,805.441402 285.554688,806.300781 C285.554688,807.160161 285.857419,807.892575 286.462891,808.498047 C287.068362,809.103519 287.800777,809.40625 288.660156,809.40625 C289.519536,809.40625 290.25195,809.103519 290.857422,808.498047 C291.462894,807.892575 291.765625,807.160161 291.765625,806.300781 Z M295.925781,806.300781 C295.925781,808.306 295.216153,810.018222 293.796875,811.4375 C292.377597,812.856778 290.665375,813.566406 288.660156,813.566406 C286.654938,813.566406 284.942715,812.856778 283.523438,811.4375 C282.10416,810.018222 281.394531,808.306 281.394531,806.300781 C281.394531,804.282542 282.10416,802.567064 283.523438,801.154297 C284.942715,799.741529 286.654938,799.035156 288.660156,799.035156 C290.665375,799.035156 292.377597,799.744785 293.796875,801.164062 C295.216153,802.58334 295.925781,804.295563 295.925781,806.300781 Z M285.554688,784.679688 L288.523438,784.679688 L272.742188,813.742188 L269.714844,813.742188 L285.554688,784.679688 Z" id="80%"></path>
        </g>
    </g>
</svg>