<?xml version="1.0" encoding="UTF-8"?>
<svg width="191px" height="52px" viewBox="0 0 191 52" version="1.1" xmlns="http://www.w3.org/2000/svg" xmlns:xlink="http://www.w3.org/1999/xlink">
    <!-- Generator: Sketch 55 (78076) - https://sketchapp.com -->
    <title>Group 5</title>
    <desc>Created with Sketch.</desc>
    <defs>
        <linearGradient x1="50.1383841%" y1="100%" x2="50.1383841%" y2="32.5347067%" id="linearGradient-1">
            <stop stop-color="#F56640" offset="0%"></stop>
            <stop stop-color="#F57840" offset="24.3858064%"></stop>
            <stop stop-color="#FFBE54" offset="100%"></stop>
        </linearGradient>
        <linearGradient x1="50.0029445%" y1="98.3205782%" x2="50.0029445%" y2="18.9773025%" id="linearGradient-2">
            <stop stop-color="#F56640" offset="0%"></stop>
            <stop stop-color="#F57840" offset="18.1093204%"></stop>
            <stop stop-color="#FFBE54" offset="100%"></stop>
        </linearGradient>
        <linearGradient x1="50.000006%" y1="110.433207%" x2="50%" y2="-25.4443577%" id="linearGradient-3">
            <stop stop-color="#F56640" offset="0%"></stop>
            <stop stop-color="#F57840" offset="8.37881088%"></stop>
            <stop stop-color="#FFBE54" offset="100%"></stop>
        </linearGradient>
        <linearGradient x1="50.000006%" y1="84.3779533%" x2="50.000006%" y2="0%" id="linearGradient-4">
            <stop stop-color="#F56640" offset="0%"></stop>
            <stop stop-color="#F57840" offset="39.1082657%"></stop>
            <stop stop-color="#FFBE54" offset="100%"></stop>
        </linearGradient>
    </defs>
    <g id="Plugin-HeartBeat" stroke="none" stroke-width="1" fill="none" fill-rule="evenodd">
        <g id="More-Optimization-V2" transform="translate(-171.000000, -323.000000)">
            <g id="Group-5" transform="translate(171.144666, 323.080620)">
                <path d="M21.4684922,26.7457364 C20.5034395,26.7457364 19.5987027,26.1813953 19.1563869,25.2945736 L18.3923869,23.5813953 L10.8127027,23.5813953 L10.0487027,25.2945736 C9.60638692,26.1813953 8.70165008,26.7457364 7.73659744,26.7457364 L7.33449218,26.7457364 L10.5714395,51.475969 C10.7322817,51.9395349 11.0338606,51.9395349 11.214808,51.475969 L14.4316501,43.5751938 L17.2262817,51.455814 C17.3871238,51.9193798 17.6887027,51.9193798 17.8696501,51.455814 L21.609229,26.7658915 L21.4684922,26.7457364 L21.4684922,26.7457364 Z" id="Shape" fill="url(#linearGradient-1)"></path>
                <path d="M18.090808,22.896124 L11.1343869,22.896124 L10.068808,25.2945736 C9.70691323,26.020155 9.00322902,26.544186 8.23922902,26.6852713 L10.6920711,41.9426357 C10.8529132,42.2248062 11.1544922,42.2248062 11.3354395,41.9426357 L14.4718606,37.1658915 L17.3469132,41.9224806 C17.5278606,42.2046512 17.8093343,42.2046512 17.9902817,41.9224806 L20.764808,26.6449612 C20.081229,26.4434109 19.4780711,25.9596899 19.1563869,25.2945736 L18.090808,22.896124 Z" id="Shape" fill="url(#linearGradient-2)"></path>
                <path d="M19.1563869,25.2945736 L14.5924922,15.075969 L10.0487027,25.2945736 C9.8878606,25.5968992 9.68680797,25.8589147 9.44554481,26.0806202 L11.3354395,36.2186047 C11.4359659,36.3596899 11.6973343,36.4 11.8782817,36.2186047 L14.4115448,32.8527132 L16.944808,36.1984496 C17.1056501,36.4 17.3871238,36.3596899 17.4876501,36.1984496 L19.5785974,25.9395349 C19.4177553,25.7379845 19.2770185,25.5364341 19.1563869,25.2945736" id="Shape" fill="url(#linearGradient-3)"></path>
                <path d="M19.1563869,25.2945736 L14.5924922,15.075969 L10.0487027,25.2945736 C9.8878606,25.5968992 9.68680797,25.8589147 9.44554481,26.0806202 L11.3354395,36.2186047 C11.4359659,36.3596899 11.6973343,36.4 11.8782817,36.2186047 L14.4115448,32.8527132 L16.944808,36.1984496 C17.1056501,36.4 17.3871238,36.3596899 17.4876501,36.1984496 L19.5785974,25.9395349 C19.4177553,25.7379845 19.2770185,25.5364341 19.1563869,25.2945736" id="Shape" fill="url(#linearGradient-4)" opacity="0.5"></path>
                <path d="M0.0362816543,1.16899225 C-0.104455188,0.685271318 0.177018496,0.342635659 0.659544812,0.342635659 L4.66049218,0.342635659 C4.94196586,0.342635659 5.20333429,0.584496124 5.28375534,0.826356589 L8.21912376,12.4155039 L8.3598606,12.4155039 L13.6475448,0.382945736 C13.7480711,0.181395349 13.9491238,-6.41691695e-15 14.2305974,-6.41691695e-15 L14.8538606,-6.41691695e-15 C15.1554395,-6.41691695e-15 15.3564922,0.16124031 15.4369132,0.382945736 L20.7245974,12.4155039 L20.8653343,12.4155039 L23.8007027,0.826356589 C23.8610185,0.584496124 24.1424922,0.342635659 24.4239659,0.342635659 L28.4249132,0.342635659 C28.9074395,0.342635659 29.168808,0.685271318 29.0481764,1.16899225 L22.5943869,24.1457364 C22.5340711,24.427907 22.2525974,24.6294574 21.9711238,24.6294574 L21.4282817,24.6294574 C21.1870185,24.6294574 20.9457553,24.4682171 20.845229,24.2465116 L14.5924922,10.2589147 L14.4919659,10.2589147 L8.27943955,24.2465116 C8.17891323,24.448062 7.93765008,24.6294574 7.69638692,24.6294574 L7.15354481,24.6294574 C6.87207113,24.6294574 6.61070271,24.427907 6.53028165,24.1457364 L0.0362816543,1.16899225" id="Shape" fill="#F56640"></path>
                <path d="M32.606808,0.987596899 C32.606808,0.64496124 32.8882817,0.342635659 33.2501764,0.342635659 L41.473229,0.342635659 C45.675229,0.342635659 49.113229,3.76899225 49.113229,7.90077519 C49.113229,12.1333333 45.675229,15.6 41.5134395,15.6 L37.9347027,15.6 L37.9347027,23.6418605 C37.9347027,23.9844961 37.6331238,24.2868217 37.2913343,24.2868217 L33.2702817,24.2868217 C32.8882817,24.2868217 32.6269132,23.9844961 32.6269132,23.6418605 L32.6269132,0.987596899 L32.606808,0.987596899 L32.606808,0.987596899 Z M41.1716501,10.6015504 C42.6393343,10.6015504 43.8657553,9.43255814 43.8657553,7.90077519 C43.8657553,6.46976744 42.6393343,5.36124031 41.1716501,5.36124031 L37.9347027,5.36124031 L37.9347027,10.6015504 L41.1716501,10.6015504 L41.1716501,10.6015504 Z" id="Shape" fill="#F56640"></path>
                <path d="M60.2314395,0.987596899 C60.2314395,0.64496124 60.5129132,0.342635659 60.874808,0.342635659 L71.0681764,0.342635659 C75.1696501,0.342635659 78.5071238,3.66821705 78.5071238,7.73953488 C78.5071238,10.8837209 76.4362817,13.4232558 73.4607027,14.6124031 L78.1251238,23.2992248 C78.3663869,23.7426357 78.1251238,24.2868217 77.5420711,24.2868217 L72.9982817,24.2868217 C72.716808,24.2868217 72.5157553,24.1255814 72.4554395,23.9844961 L67.9116501,14.9147287 L65.5593343,14.9147287 L65.5593343,23.6418605 C65.5593343,23.9844961 65.2577553,24.2868217 64.9159659,24.2868217 L60.8547027,24.2868217 C60.4727027,24.2868217 60.2113343,23.9844961 60.2113343,23.6418605 L60.2314395,0.987596899 L60.2314395,0.987596899 Z M70.6459659,10.5612403 C72.0533343,10.5612403 73.2395448,9.27131783 73.2395448,7.82015504 C73.2395448,6.38914729 72.0533343,5.22015504 70.6459659,5.22015504 L65.5995448,5.22015504 L65.5995448,10.5612403 L70.6459659,10.5612403 L70.6459659,10.5612403 Z" id="Shape" fill="#0E1B23"></path>
                <path d="M93.6061764,-3.55271368e-15 C100.421861,-3.55271368e-15 105.890492,5.50232558 105.890492,12.3550388 C105.890492,19.2077519 100.441966,24.6294574 93.6061764,24.6294574 C86.7904922,24.6294574 81.3620711,19.1875969 81.3620711,12.3550388 C81.3620711,5.52248062 86.7904922,-3.55271368e-15 93.6061764,-3.55271368e-15 M93.6061764,19.1472868 C97.3658606,19.1472868 100.421861,16.0635659 100.421861,12.3348837 C100.421861,8.56589147 97.3457553,5.4620155 93.6061764,5.4620155 C89.8867027,5.4620155 86.8105974,8.56589147 86.8105974,12.3348837 C86.8105974,16.0635659 89.8867027,19.1472868 93.6061764,19.1472868" id="Shape" fill="#0E1B23"></path>
                <path d="M120.58744,-2.66453526e-14 C124.005334,-2.66453526e-14 126.518492,1.06821705 128.850703,3.18449612 C129.152282,3.46666667 129.152282,3.86976744 128.890913,4.13178295 L126.237018,6.89302326 C125.995755,7.13488372 125.613755,7.13488372 125.392597,6.89302326 C124.125966,5.76434109 122.457229,5.13953488 120.788492,5.13953488 C116.928282,5.13953488 114.09344,8.36434109 114.09344,12.1937984 C114.09344,15.9829457 116.968492,19.1472868 120.808597,19.1472868 C122.417018,19.1472868 124.146071,18.5627907 125.372492,17.5147287 C125.613755,17.3131783 126.056071,17.3131783 126.257124,17.5550388 L128.911018,20.3968992 C129.152282,20.6387597 129.112071,21.0821705 128.870808,21.324031 C126.558703,23.5813953 123.623334,24.6496124 120.58744,24.6496124 C113.771755,24.6496124 108.262913,19.2077519 108.262913,12.3751938 C108.262913,5.54263566 113.771755,-2.66453526e-14 120.58744,-2.66453526e-14" id="Shape" fill="#0E1B23"></path>
                <path d="M132.972282,1.16899225 C132.972282,0.725581395 133.314071,0.342635659 133.796597,0.342635659 L137.797545,0.342635659 C138.239861,0.342635659 138.621861,0.725581395 138.621861,1.16899225 L138.621861,10.1581395 L146.201545,0.685271318 C146.342282,0.524031008 146.643861,0.342635659 146.844913,0.342635659 L151.14744,0.342635659 C151.790808,0.342635659 152.132597,1.08837209 151.770703,1.6124031 L143.788913,11.6294574 L152.494492,22.9767442 C152.876492,23.4806202 152.494492,24.2465116 151.851124,24.2465116 L147.146492,24.2465116 C146.905229,24.2465116 146.60365,24.1054264 146.523229,24.0046512 L138.601755,13.2620155 L138.601755,23.4604651 C138.601755,23.903876 138.219755,24.2868217 137.77744,24.2868217 L133.776492,24.2868217 C133.293966,24.2868217 132.952176,23.903876 132.952176,23.4604651 L132.972282,1.16899225 L132.972282,1.16899225 Z" id="Shape" fill="#0E1B23"></path>
                <path d="M155.932492,0.987596899 C155.932492,0.64496124 156.213966,0.342635659 156.575861,0.342635659 L170.709861,0.342635659 C171.091861,0.342635659 171.353229,0.64496124 171.353229,0.987596899 L171.353229,4.71627907 C171.353229,5.05891473 171.071755,5.36124031 170.709861,5.36124031 L161.260387,5.36124031 L161.260387,9.59379845 L169.041124,9.59379845 C169.382913,9.59379845 169.684492,9.89612403 169.684492,10.2387597 L169.684492,13.9674419 C169.684492,14.3503876 169.382913,14.6124031 169.041124,14.6124031 L161.260387,14.6124031 L161.260387,19.248062 L170.709861,19.248062 C171.091861,19.248062 171.353229,19.5503876 171.353229,19.8930233 L171.353229,23.6217054 C171.353229,23.9643411 171.071755,24.2666667 170.709861,24.2666667 L156.575861,24.2666667 C156.193861,24.2666667 155.932492,23.9643411 155.932492,23.6217054 L155.932492,0.987596899" id="Shape" fill="#0E1B23"></path>
                <path d="M178.993229,5.36124031 L174.10765,5.36124031 C173.72565,5.36124031 173.464282,5.05891473 173.464282,4.71627907 L173.464282,0.987596899 C173.464282,0.64496124 173.745755,0.342635659 174.10765,0.342635659 L189.246913,0.342635659 C189.628913,0.342635659 189.890282,0.64496124 189.890282,0.987596899 L189.890282,4.71627907 C189.890282,5.05891473 189.608808,5.36124031 189.246913,5.36124031 L184.361334,5.36124031 L184.361334,23.6217054 C184.361334,23.9643411 184.059755,24.2666667 183.717966,24.2666667 L179.616492,24.2666667 C179.274703,24.2666667 178.973124,23.9643411 178.973124,23.6217054 L178.993229,5.36124031 L178.993229,5.36124031 Z" id="Shape" fill="#0E1B23"></path>
                <path d="M28.2368669,41.8630393 C29.695521,41.8630393 30.7175711,41.0871434 30.7175711,39.7840363 L30.7175711,39.7641415 C30.7175711,38.610245 29.963437,38.0830337 28.4948601,37.7249279 C27.1552799,37.4066117 26.8377497,37.1678745 26.8377497,36.6307158 L26.8377497,36.610821 C26.8377497,36.1532414 27.254508,35.7851882 27.9689508,35.7851882 C28.5147058,35.7851882 29.0306922,35.9642411 29.5665243,36.3123995 C29.6657525,36.3720838 29.7649807,36.401926 29.8840545,36.401926 C30.2015846,36.401926 30.4595779,36.1532414 30.4595779,35.8349251 C30.4595779,35.5961879 30.3305812,35.4270824 30.1916618,35.3475034 C29.5665243,34.9297133 28.8620044,34.7009235 27.9887965,34.7009235 C26.609525,34.7009235 25.6172433,35.5265563 25.6172433,36.7202422 L25.6172433,36.740137 C25.6172433,38.0233494 26.4507599,38.4610343 27.9292596,38.8191401 C29.2192258,39.1175616 29.4970646,39.3861409 29.4970646,39.8835101 L29.4970646,39.9034049 C29.4970646,40.4206688 29.0207694,40.7787746 28.2666354,40.7787746 C27.5125013,40.7787746 26.8972866,40.5201426 26.3217633,40.062563 C26.2423807,40.0028787 26.1332298,39.9531418 25.9645419,39.9531418 C25.6470117,39.9531418 25.3890185,40.2018263 25.3890185,40.5201426 C25.3890185,40.7190903 25.4882467,40.8881958 25.6271661,40.9876696 C26.4011458,41.5646178 27.2941993,41.8630393 28.2368669,41.8630393 Z M36.6712611,37.0584533 C36.6712611,36.7202422 36.3934223,36.4516629 36.0659693,36.4516629 C35.7285935,36.4516629 35.4606775,36.7202422 35.4606775,37.0584533 L35.4606775,39.4756674 C35.4606775,40.2913528 34.9744595,40.7688272 34.2798623,40.7688272 C33.5654195,40.7688272 33.158584,40.3112476 33.158584,39.4955621 L33.158584,37.0584533 C33.158584,36.7202422 32.890668,36.4516629 32.5532922,36.4516629 C32.2258392,36.4516629 31.9579232,36.7202422 31.9579232,37.0584533 L31.9579232,39.8536679 C31.9579232,41.0771961 32.6425975,41.8729867 33.8234127,41.8729867 C34.6370837,41.8729867 35.1233017,41.4452492 35.4606775,40.9478801 L35.4606775,41.2164594 C35.4606775,41.5546705 35.7385164,41.8133024 36.0659693,41.8133024 C36.4033451,41.8133024 36.6712611,41.5447231 36.6712611,41.2164594 L36.6712611,37.0584533 Z M38.1696065,42.8080407 L38.1696065,37.0584533 C38.1696065,36.7202422 38.4275997,36.4516629 38.7649755,36.4516629 C39.1023512,36.4516629 39.3702673,36.7202422 39.3702673,37.0584533 L39.3702673,37.3867169 C39.7572571,36.8396108 40.3030121,36.401926 41.1563743,36.401926 C42.3868036,36.401926 43.5874644,37.3767695 43.5874644,39.127509 L43.5874644,39.1474037 C43.5874644,40.8881958 42.3967264,41.8729867 41.1563743,41.8729867 C40.2831664,41.8729867 39.7374115,41.4353019 39.3702673,40.9478801 L39.3702673,42.8080407 C39.3702673,43.1462518 39.1023512,43.4048837 38.7649755,43.4048837 C38.4375225,43.4048837 38.1696065,43.1462518 38.1696065,42.8080407 Z M40.8686126,40.8285115 C41.6922064,40.8285115 42.3669579,40.1819316 42.3669579,39.1474037 L42.3669579,39.127509 C42.3669579,38.1128759 41.6822836,37.4464012 40.8686126,37.4464012 C40.0549416,37.4464012 39.3404988,38.1228233 39.3404988,39.127509 L39.3404988,39.1474037 C39.3404988,40.1520894 40.0549416,40.8285115 40.8686126,40.8285115 Z M45.7307928,38.7694032 L48.4198761,38.7694032 C48.3404936,37.9935073 47.884044,37.3867169 47.0902187,37.3867169 C46.3559303,37.3867169 45.8399438,37.9537178 45.7307928,38.7694032 Z M49.1144733,41.1866173 C48.6381781,41.6143548 48.0428091,41.8829341 47.2291381,41.8829341 C45.7109472,41.8829341 44.5400548,40.7787746 44.5400548,39.1573511 L44.5400548,39.1374563 C44.5400548,37.6354015 45.6017962,36.401926 47.1001415,36.401926 C48.7671747,36.401926 49.5907685,37.7746649 49.5907685,38.9882456 C49.5907685,39.3264566 49.3327753,39.5651938 49.025168,39.5651938 L45.7407156,39.5651938 C45.8697122,40.4206688 46.4750041,40.8981432 47.2489838,40.8981432 C47.7550474,40.8981432 48.1519601,40.7190903 48.4893359,40.4405635 C48.5786412,40.3709319 48.6580238,40.3311423 48.7969432,40.3311423 C49.0648592,40.3311423 49.2732384,40.5400374 49.2732384,40.8185641 C49.2732384,40.9677748 49.2037787,41.0970908 49.1144733,41.1866173 Z M50.8211978,41.2164594 C50.8211978,41.5546705 51.0891139,41.8133024 51.4165668,41.8133024 C51.7539426,41.8133024 52.0218586,41.5447231 52.0218586,41.2164594 L52.0218586,39.6646677 C52.0218586,38.4212448 52.6073048,37.7647175 53.4606671,37.6155067 C53.7285831,37.5657698 53.9369623,37.3568748 53.9369623,37.0385585 C53.9369623,36.6904001 53.7186603,36.4417155 53.3415933,36.4417155 C52.815684,36.4417155 52.2996975,36.9390847 52.0218586,37.595612 L52.0218586,37.0584533 C52.0218586,36.7202422 51.7539426,36.4516629 51.4165668,36.4516629 C51.079191,36.4516629 50.8211978,36.7202422 50.8211978,37.0584533 L50.8211978,41.2164594 Z M54.8994755,35.1585031 C54.8994755,35.5166089 55.19716,35.7553461 55.5841498,35.7553461 C55.9711397,35.7553461 56.2688242,35.5166089 56.2688242,35.1585031 L56.2688242,35.0988188 C56.2688242,34.740713 55.9711397,34.5119232 55.5841498,34.5119232 C55.19716,34.5119232 54.8994755,34.740713 54.8994755,35.0988188 L54.8994755,35.1585031 Z M54.9887808,41.2164594 C54.9887808,41.5546705 55.2566969,41.8133024 55.5841498,41.8133024 C55.9215256,41.8133024 56.1894417,41.5546705 56.1894417,41.2164594 L56.1894417,37.0584533 C56.1894417,36.7202422 55.9215256,36.4516629 55.5841498,36.4516629 C55.2467741,36.4516629 54.9887808,36.7202422 54.9887808,37.0584533 L54.9887808,41.2164594 Z M60.2478737,41.8829341 C58.6503002,41.8829341 57.469485,40.659406 57.469485,39.1672985 L57.469485,39.1474037 C57.469485,37.6453489 58.660223,36.401926 60.2677193,36.401926 C61.8752156,36.401926 63.0560308,37.6254541 63.0560308,39.127509 L63.0560308,39.1474037 C63.0560308,40.6395112 61.8652928,41.8829341 60.2478737,41.8829341 Z M60.2677193,40.8285115 C61.2401554,40.8285115 61.85537,40.0725104 61.85537,39.1672985 L61.85537,39.1474037 C61.85537,38.2222971 61.1905413,37.4563486 60.2478737,37.4563486 C59.2853605,37.4563486 58.6701458,38.2123497 58.6701458,39.127509 L58.6701458,39.1474037 C58.6701458,40.062563 59.3349746,40.8285115 60.2677193,40.8285115 Z M64.2765373,41.2164594 C64.2765373,41.5546705 64.5444534,41.8133024 64.8719063,41.8133024 C65.2092821,41.8133024 65.4771981,41.5447231 65.4771981,41.2164594 L65.4771981,39.6646677 C65.4771981,38.4212448 66.0626443,37.7647175 66.9160066,37.6155067 C67.1839226,37.5657698 67.3923018,37.3568748 67.3923018,37.0385585 C67.3923018,36.6904001 67.1739998,36.4417155 66.7969328,36.4417155 C66.2710235,36.4417155 65.755037,36.9390847 65.4771981,37.595612 L65.4771981,37.0584533 C65.4771981,36.7202422 65.2092821,36.4516629 64.8719063,36.4516629 C64.5345305,36.4516629 64.2765373,36.7202422 64.2765373,37.0584533 L64.2765373,41.2164594 Z M73.117767,41.3557228 C73.2368408,41.6740391 73.4551428,41.8630393 73.7528273,41.8630393 L73.8719011,41.8630393 C74.1695856,41.8630393 74.3978104,41.6740391 74.5069614,41.3557228 L76.0549208,36.8097687 L77.6028802,41.3557228 C77.7120312,41.6740391 77.9303331,41.8630393 78.2280176,41.8630393 L78.3470914,41.8630393 C78.6447759,41.8630393 78.8730007,41.6640917 78.9821517,41.3557228 L81.0361748,35.5862406 C81.0659432,35.5166089 81.0957117,35.4171351 81.0957117,35.337556 C81.0957117,35.0092923 80.8178728,34.7506604 80.4904199,34.7506604 C80.1927353,34.7506604 79.9843562,34.9396607 79.8950508,35.1883452 L78.2974774,39.9829839 L76.7296723,35.2181874 C76.640367,34.9297133 76.422065,34.7307656 76.1144577,34.7307656 L76.0251523,34.7307656 C75.717545,34.7307656 75.5091658,34.9297133 75.4099377,35.2181874 L73.8421326,39.9829839 L72.2445591,35.1982926 C72.1651766,34.9396607 71.9369518,34.7506604 71.6392673,34.7506604 C71.3018916,34.7506604 71.0141299,35.0092923 71.0141299,35.3475034 C71.0141299,35.4270824 71.0339755,35.5166089 71.0637439,35.5862406 L73.117767,41.3557228 Z M84.2412446,41.8829341 C82.6436711,41.8829341 81.4628559,40.659406 81.4628559,39.1672985 L81.4628559,39.1474037 C81.4628559,37.6453489 82.6535939,36.401926 84.2610902,36.401926 C85.8685865,36.401926 87.0494017,37.6254541 87.0494017,39.127509 L87.0494017,39.1474037 C87.0494017,40.6395112 85.8586637,41.8829341 84.2412446,41.8829341 Z M84.2610902,40.8285115 C85.2335263,40.8285115 85.8487409,40.0725104 85.8487409,39.1672985 L85.8487409,39.1474037 C85.8487409,38.2222971 85.1839122,37.4563486 84.2412446,37.4563486 C83.2787314,37.4563486 82.6635167,38.2123497 82.6635167,39.127509 L82.6635167,39.1474037 C82.6635167,40.062563 83.3283454,40.8285115 84.2610902,40.8285115 Z M88.2699082,41.2164594 C88.2699082,41.5546705 88.5378242,41.8133024 88.8652772,41.8133024 C89.2026529,41.8133024 89.470569,41.5447231 89.470569,41.2164594 L89.470569,39.6646677 C89.470569,38.4212448 90.0560152,37.7647175 90.9093774,37.6155067 C91.1772935,37.5657698 91.3856726,37.3568748 91.3856726,37.0385585 C91.3856726,36.6904001 91.1673707,36.4417155 90.7903036,36.4417155 C90.2643943,36.4417155 89.7484079,36.9390847 89.470569,37.595612 L89.470569,37.0584533 C89.470569,36.7202422 89.2026529,36.4516629 88.8652772,36.4516629 C88.5279014,36.4516629 88.2699082,36.7202422 88.2699082,37.0584533 L88.2699082,41.2164594 Z M97.3691311,35.0490819 L97.3691311,41.2164594 C97.3691311,41.5546705 97.1012151,41.8133024 96.7737621,41.8133024 C96.4363864,41.8133024 96.1684703,41.5546705 96.1684703,41.2164594 L96.1684703,40.8881958 C95.7814804,41.4353019 95.2357255,41.8729867 94.3823633,41.8729867 C93.151934,41.8729867 91.9512732,40.8881958 91.9512732,39.1474037 L91.9512732,39.127509 C91.9512732,37.3867169 93.1320884,36.401926 94.3823633,36.401926 C95.2456483,36.401926 95.7914033,36.8296635 96.1684703,37.3270326 L96.1684703,35.0490819 C96.1684703,34.7108708 96.4363864,34.4522389 96.7638393,34.4522389 C97.1012151,34.4522389 97.3691311,34.7108708 97.3691311,35.0490819 Z M94.670125,37.4464012 C93.8465312,37.4464012 93.1618568,38.0830337 93.1618568,39.127509 L93.1618568,39.1474037 C93.1618568,40.1620368 93.856454,40.8285115 94.670125,40.8285115 C95.4738731,40.8285115 96.1883159,40.1520894 96.1883159,39.1474037 L96.1883159,39.127509 C96.1883159,38.1128759 95.4738731,37.4464012 94.670125,37.4464012 Z M99.0163187,41.206512 L99.0163187,35.4171351 C99.0163187,35.0689766 99.2842348,34.8003973 99.6315333,34.8003973 L101.755016,34.8003973 C103.382358,34.8003973 104.394485,35.7255039 104.394485,37.128085 L104.394485,37.1479797 C104.394485,38.7097189 103.14421,39.5254043 101.616097,39.5254043 L100.236825,39.5254043 L100.236825,41.206512 C100.236825,41.5447231 99.9689091,41.8133024 99.6315333,41.8133024 C99.2842348,41.8133024 99.0163187,41.5447231 99.0163187,41.206512 Z M100.236825,38.4212448 L101.655788,38.4212448 C102.57861,38.4212448 103.154133,37.9039808 103.154133,37.1778219 L103.154133,37.1579271 C103.154133,36.3422417 102.568687,35.9145042 101.655788,35.9145042 L100.236825,35.9145042 L100.236825,38.4212448 Z M105.505841,41.2164594 C105.505841,41.5546705 105.773757,41.8133024 106.10121,41.8133024 C106.438586,41.8133024 106.706502,41.5447231 106.706502,41.2164594 L106.706502,39.6646677 C106.706502,38.4212448 107.291948,37.7647175 108.14531,37.6155067 C108.413226,37.5657698 108.621605,37.3568748 108.621605,37.0385585 C108.621605,36.6904001 108.403303,36.4417155 108.026236,36.4417155 C107.500327,36.4417155 106.984341,36.9390847 106.706502,37.595612 L106.706502,37.0584533 C106.706502,36.7202422 106.438586,36.4516629 106.10121,36.4516629 C105.763834,36.4516629 105.505841,36.7202422 105.505841,37.0584533 L105.505841,41.2164594 Z M110.32833,38.7694032 L113.017413,38.7694032 C112.938031,37.9935073 112.481581,37.3867169 111.687756,37.3867169 C110.953467,37.3867169 110.437481,37.9537178 110.32833,38.7694032 Z M113.71201,41.1866173 C113.235715,41.6143548 112.640346,41.8829341 111.826675,41.8829341 C110.308484,41.8829341 109.137592,40.7787746 109.137592,39.1573511 L109.137592,39.1374563 C109.137592,37.6354015 110.199333,36.401926 111.697678,36.401926 C113.364712,36.401926 114.188305,37.7746649 114.188305,38.9882456 C114.188305,39.3264566 113.930312,39.5651938 113.622705,39.5651938 L110.338253,39.5651938 C110.467249,40.4206688 111.072541,40.8981432 111.846521,40.8981432 C112.352584,40.8981432 112.749497,40.7190903 113.086873,40.4405635 C113.176178,40.3709319 113.255561,40.3311423 113.39448,40.3311423 C113.662396,40.3311423 113.870775,40.5400374 113.870775,40.8185641 C113.870775,40.9677748 113.801316,41.0970908 113.71201,41.1866173 Z M117.214765,41.8630393 C118.306274,41.8630393 119.159637,41.3159333 119.159637,40.2117737 L119.159637,40.191879 C119.159637,39.2468776 118.296352,38.8987192 117.532295,38.659982 C116.91708,38.4610343 116.35148,38.3018762 116.35148,37.9139282 L116.35148,37.8940335 C116.35148,37.595612 116.619396,37.3767695 117.085768,37.3767695 C117.452912,37.3767695 117.889516,37.5160329 118.316197,37.7348753 C118.39558,37.7746649 118.455117,37.7945596 118.554345,37.7945596 C118.832184,37.7945596 119.050486,37.5856646 119.050486,37.3071378 C119.050486,37.0982428 118.931412,36.9390847 118.762724,36.8495582 C118.25666,36.5809789 117.671214,36.4218207 117.115536,36.4218207 C116.073641,36.4218207 115.250047,37.0286111 115.250047,38.0233494 L115.250047,38.0432442 C115.250047,39.0479299 116.113332,39.3662462 116.887312,39.5850886 C117.502526,39.7740889 118.058204,39.9133522 118.058204,40.3211949 L118.058204,40.3410897 C118.058204,40.6892481 117.76052,40.9080905 117.244533,40.9080905 C116.768238,40.9080905 116.242329,40.738985 115.736265,40.400774 C115.666805,40.3609845 115.5775,40.3311423 115.478272,40.3311423 C115.200433,40.3311423 114.992054,40.5499848 114.992054,40.8185641 C114.992054,41.0175118 115.091282,41.1667225 115.220278,41.2363542 C115.82557,41.6541443 116.549936,41.8630393 117.214765,41.8630393 Z M122.086868,41.8630393 C123.178377,41.8630393 124.03174,41.3159333 124.03174,40.2117737 L124.03174,40.191879 C124.03174,39.2468776 123.168455,38.8987192 122.404398,38.659982 C121.789183,38.4610343 121.223583,38.3018762 121.223583,37.9139282 L121.223583,37.8940335 C121.223583,37.595612 121.491499,37.3767695 121.957871,37.3767695 C122.325015,37.3767695 122.761619,37.5160329 123.1883,37.7348753 C123.267683,37.7746649 123.32722,37.7945596 123.426448,37.7945596 C123.704287,37.7945596 123.922589,37.5856646 123.922589,37.3071378 C123.922589,37.0982428 123.803515,36.9390847 123.634827,36.8495582 C123.128763,36.5809789 122.543317,36.4218207 121.987639,36.4218207 C120.945744,36.4218207 120.12215,37.0286111 120.12215,38.0233494 L120.12215,38.0432442 C120.12215,39.0479299 120.985435,39.3662462 121.759415,39.5850886 C122.374629,39.7740889 122.930307,39.9133522 122.930307,40.3211949 L122.930307,40.3410897 C122.930307,40.6892481 122.632623,40.9080905 122.116636,40.9080905 C121.640341,40.9080905 121.114432,40.738985 120.608368,40.400774 C120.538908,40.3609845 120.449603,40.3311423 120.350375,40.3311423 C120.072536,40.3311423 119.864157,40.5499848 119.864157,40.8185641 C119.864157,41.0175118 119.963385,41.1667225 120.092381,41.2363542 C120.697673,41.6541443 121.422039,41.8630393 122.086868,41.8630393 Z M128.377933,41.206512 L128.377933,35.4171351 C128.377933,35.0689766 128.645849,34.8003973 128.993148,34.8003973 L131.116631,34.8003973 C132.743973,34.8003973 133.7561,35.7255039 133.7561,37.128085 L133.7561,37.1479797 C133.7561,38.7097189 132.505825,39.5254043 130.977711,39.5254043 L129.59844,39.5254043 L129.59844,41.206512 C129.59844,41.5447231 129.330524,41.8133024 128.993148,41.8133024 C128.645849,41.8133024 128.377933,41.5447231 128.377933,41.206512 Z M129.59844,38.4212448 L131.017403,38.4212448 C131.940225,38.4212448 132.515748,37.9039808 132.515748,37.1778219 L132.515748,37.1579271 C132.515748,36.3422417 131.930302,35.9145042 131.017403,35.9145042 L129.59844,35.9145042 L129.59844,38.4212448 Z M135.720818,38.7694032 L138.409901,38.7694032 C138.330519,37.9935073 137.874069,37.3867169 137.080244,37.3867169 C136.345955,37.3867169 135.829969,37.9537178 135.720818,38.7694032 Z M139.104498,41.1866173 C138.628203,41.6143548 138.032834,41.8829341 137.219163,41.8829341 C135.700972,41.8829341 134.53008,40.7787746 134.53008,39.1573511 L134.53008,39.1374563 C134.53008,37.6354015 135.591821,36.401926 137.090167,36.401926 C138.7572,36.401926 139.580794,37.7746649 139.580794,38.9882456 C139.580794,39.3264566 139.3228,39.5651938 139.015193,39.5651938 L135.730741,39.5651938 C135.859737,40.4206688 136.465029,40.8981432 137.239009,40.8981432 C137.745072,40.8981432 138.141985,40.7190903 138.479361,40.4405635 C138.568666,40.3709319 138.648049,40.3311423 138.786968,40.3311423 C139.054884,40.3311423 139.263263,40.5400374 139.263263,40.8185641 C139.263263,40.9677748 139.193804,41.0970908 139.104498,41.1866173 Z M140.811223,41.2164594 C140.811223,41.5546705 141.079139,41.8133024 141.406592,41.8133024 C141.743968,41.8133024 142.011884,41.5447231 142.011884,41.2164594 L142.011884,39.6646677 C142.011884,38.4212448 142.59733,37.7647175 143.450692,37.6155067 C143.718608,37.5657698 143.926987,37.3568748 143.926987,37.0385585 C143.926987,36.6904001 143.708685,36.4417155 143.331618,36.4417155 C142.805709,36.4417155 142.289723,36.9390847 142.011884,37.595612 L142.011884,37.0584533 C142.011884,36.7202422 141.743968,36.4516629 141.406592,36.4516629 C141.069216,36.4516629 140.811223,36.7202422 140.811223,37.0584533 L140.811223,41.2164594 Z M145.177262,41.2164594 C145.177262,41.5447231 145.445178,41.8133024 145.772631,41.8133024 C146.110007,41.8133024 146.377923,41.5447231 146.377923,41.2164594 L146.377923,37.545875 L147.290822,37.545875 C147.568661,37.545875 147.796886,37.3270326 147.796886,37.0485059 C147.796886,36.7699792 147.578584,36.5511367 147.290822,36.5511367 L146.358077,36.5511367 L146.358077,36.2626626 C146.358077,35.7155565 146.596225,35.466872 147.052675,35.466872 C147.132057,35.466872 147.231285,35.4768193 147.300745,35.4867667 C147.578584,35.4967141 147.806809,35.2679243 147.806809,34.9893976 C147.806809,34.7208182 147.608352,34.5218706 147.39005,34.4920284 C147.221362,34.4621863 147.022906,34.4422915 146.784758,34.4422915 C146.268772,34.4422915 145.881782,34.5815549 145.603943,34.8600816 C145.326104,35.1386083 145.177262,35.5762932 145.177262,36.1532414 L145.177262,36.5411893 L144.968883,36.5411893 C144.691044,36.5411893 144.462819,36.7699792 144.462819,37.0485059 C144.462819,37.3270326 144.691044,37.545875 144.968883,37.545875 L145.177262,37.545875 L145.177262,41.2164594 Z M151.031724,41.8829341 C149.434151,41.8829341 148.253335,40.659406 148.253335,39.1672985 L148.253335,39.1474037 C148.253335,37.6453489 149.444073,36.401926 151.05157,36.401926 C152.659066,36.401926 153.839881,37.6254541 153.839881,39.127509 L153.839881,39.1474037 C153.839881,40.6395112 152.649143,41.8829341 151.031724,41.8829341 Z M151.05157,40.8285115 C152.024006,40.8285115 152.63922,40.0725104 152.63922,39.1672985 L152.63922,39.1474037 C152.63922,38.2222971 151.974392,37.4563486 151.031724,37.4563486 C150.069211,37.4563486 149.453996,38.2123497 149.453996,39.127509 L149.453996,39.1474037 C149.453996,40.062563 150.118825,40.8285115 151.05157,40.8285115 Z M155.060388,41.2164594 C155.060388,41.5546705 155.328304,41.8133024 155.655757,41.8133024 C155.993132,41.8133024 156.261048,41.5447231 156.261048,41.2164594 L156.261048,39.6646677 C156.261048,38.4212448 156.846495,37.7647175 157.699857,37.6155067 C157.967773,37.5657698 158.176152,37.3568748 158.176152,37.0385585 C158.176152,36.6904001 157.95785,36.4417155 157.580783,36.4417155 C157.054874,36.4417155 156.538887,36.9390847 156.261048,37.595612 L156.261048,37.0584533 C156.261048,36.7202422 155.993132,36.4516629 155.655757,36.4516629 C155.318381,36.4516629 155.060388,36.7202422 155.060388,37.0584533 L155.060388,41.2164594 Z M159.158511,41.2164594 C159.158511,41.5546705 159.426427,41.8133024 159.75388,41.8133024 C160.091256,41.8133024 160.359172,41.5546705 160.359172,41.2164594 L160.359172,38.7992453 C160.359172,37.9935073 160.815621,37.4961381 161.48045,37.4961381 C162.145279,37.4961381 162.542191,37.9537178 162.542191,38.7694032 L162.542191,41.2164594 C162.542191,41.5546705 162.810108,41.8133024 163.147483,41.8133024 C163.474936,41.8133024 163.742852,41.5546705 163.742852,41.2164594 L163.742852,38.7992453 C163.742852,37.9537178 164.209225,37.4961381 164.864131,37.4961381 C165.538882,37.4961381 165.925872,37.9437704 165.925872,38.7793506 L165.925872,41.2164594 C165.925872,41.5546705 166.193788,41.8133024 166.531164,41.8133024 C166.86854,41.8133024 167.126533,41.5546705 167.126533,41.2164594 L167.126533,38.4112974 C167.126533,37.128085 166.431936,36.401926 165.290812,36.401926 C164.496986,36.401926 163.941309,36.7699792 163.52455,37.3270326 C163.246711,36.7699792 162.710879,36.401926 161.956745,36.401926 C161.152997,36.401926 160.696548,36.8396108 160.359172,37.3071378 L160.359172,37.0584533 C160.359172,36.7202422 160.091256,36.4516629 159.75388,36.4516629 C159.416504,36.4516629 159.158511,36.7202422 159.158511,37.0584533 L159.158511,41.2164594 Z M170.093455,41.8729867 C169.111096,41.8729867 168.237888,41.3059859 168.237888,40.2515633 L168.237888,40.2316685 C168.237888,39.0976668 169.121019,38.5406134 170.401062,38.5406134 C170.986509,38.5406134 171.403267,38.6301398 171.810102,38.7594558 L171.810102,38.6301398 C171.810102,37.8840861 171.353653,37.4861907 170.510213,37.4861907 C170.053764,37.4861907 169.676697,37.5657698 169.349244,37.6950858 C169.279784,37.7149806 169.220247,37.7249279 169.16071,37.7249279 C168.882871,37.7249279 168.654647,37.5060855 168.654647,37.2275588 C168.654647,37.0087164 168.803489,36.8197161 168.9821,36.7500844 C169.47824,36.5610841 169.984304,36.4417155 170.668978,36.4417155 C171.452881,36.4417155 172.038327,36.6506106 172.405471,37.0286111 C172.792461,37.4066117 172.971072,37.9636651 172.971072,38.6500346 L172.971072,41.2363542 C172.971072,41.5646178 172.713079,41.8133024 172.385626,41.8133024 C172.038327,41.8133024 171.800179,41.5745652 171.800179,41.3059859 L171.800179,41.1070382 C171.442958,41.5347757 170.897203,41.8729867 170.093455,41.8729867 Z M170.430831,40.997617 C171.224656,40.997617 171.829948,40.5400374 171.829948,39.8735627 L171.829948,39.5154569 C171.522341,39.3960883 171.115505,39.3065619 170.63921,39.3065619 C169.86523,39.3065619 169.408781,39.6348255 169.408781,40.1819316 L169.408781,40.2018263 C169.408781,40.7091429 169.855307,40.997617 170.430831,40.997617 Z M174.40988,41.2164594 C174.40988,41.5546705 174.677796,41.8133024 175.005249,41.8133024 C175.342625,41.8133024 175.610541,41.5546705 175.610541,41.2164594 L175.610541,38.7992453 C175.610541,37.9835599 176.096759,37.4961381 176.791356,37.4961381 C177.505799,37.4961381 177.912635,37.9636651 177.912635,38.7793506 L177.912635,41.2164594 C177.912635,41.5546705 178.180551,41.8133024 178.517926,41.8133024 C178.855302,41.8133024 179.113295,41.5546705 179.113295,41.2164594 L179.113295,38.4112974 C179.113295,37.1977166 178.428621,36.401926 177.247806,36.401926 C176.434135,36.401926 175.947917,36.8296635 175.610541,37.3170852 L175.610541,37.0584533 C175.610541,36.7202422 175.342625,36.4516629 175.005249,36.4516629 C174.667874,36.4516629 174.40988,36.7202422 174.40988,37.0584533 L174.40988,41.2164594 Z M182.983194,41.8829341 C183.856402,41.8829341 184.422002,41.5845126 184.888375,41.1368804 C184.997526,41.0473539 185.057063,40.9180379 185.057063,40.7588798 C185.057063,40.4704057 184.828838,40.2316685 184.541076,40.2316685 C184.402157,40.2316685 184.283083,40.3013002 184.213623,40.3609845 C183.88617,40.6395112 183.519026,40.8285115 183.042731,40.8285115 C182.119909,40.8285115 181.474926,40.0824577 181.474926,39.1474037 L181.474926,39.127509 C181.474926,38.2123497 182.119909,37.4563486 182.993117,37.4563486 C183.469412,37.4563486 183.806788,37.6453489 184.114395,37.9039808 C184.193778,37.9636651 184.322774,38.0233494 184.471616,38.0233494 C184.779224,38.0233494 185.027294,37.7846122 185.027294,37.4762434 C185.027294,37.2772957 184.918143,37.128085 184.838761,37.0584533 C184.392234,36.6705053 183.826633,36.401926 183.00304,36.401926 C181.425312,36.401926 180.274265,37.6552963 180.274265,39.1474037 L180.274265,39.1672985 C180.274265,40.659406 181.425312,41.8829341 182.983194,41.8829341 Z M186.982089,38.7694032 L189.671172,38.7694032 C189.59179,37.9935073 189.13534,37.3867169 188.341515,37.3867169 C187.607227,37.3867169 187.09124,37.9537178 186.982089,38.7694032 Z M190.36577,41.1866173 C189.889474,41.6143548 189.294105,41.8829341 188.480434,41.8829341 C186.962243,41.8829341 185.791351,40.7787746 185.791351,39.1573511 L185.791351,39.1374563 C185.791351,37.6354015 186.853092,36.401926 188.351438,36.401926 C190.018471,36.401926 190.842065,37.7746649 190.842065,38.9882456 C190.842065,39.3264566 190.584072,39.5651938 190.276464,39.5651938 L186.992012,39.5651938 C187.121009,40.4206688 187.7263,40.8981432 188.50028,40.8981432 C189.006344,40.8981432 189.403256,40.7190903 189.740632,40.4405635 C189.829938,40.3709319 189.90932,40.3311423 190.048239,40.3311423 C190.316156,40.3311423 190.524535,40.5400374 190.524535,40.8185641 C190.524535,40.9677748 190.455075,41.0970908 190.36577,41.1866173 Z" id="Superior-WordPress-P" fill="#757575"></path>
            </g>
        </g>
    </g>
</svg>