<?xml version="1.0" encoding="UTF-8"?>
<svg width="63px" height="43px" viewBox="0 0 63 43" version="1.1" xmlns="http://www.w3.org/2000/svg" xmlns:xlink="http://www.w3.org/1999/xlink">
    <!-- Generator: Sketch 55 (78076) - https://sketchapp.com -->
    <title>noun_performance_1221123 (2)</title>
    <desc>Created with Sketch.</desc>
    <g id="Plugin-HeartBeat" stroke="none" stroke-width="1" fill="none" fill-rule="evenodd">
        <g id="More-Optimization-V2" transform="translate(-427.000000, -782.000000)" fill="#FFFFFF" fill-rule="nonzero">
            <g id="noun_performance_1221123-(2)" transform="translate(427.000000, 782.000000)">
                <g id="Group">
                    <path d="M2.13387097,42.0785714 L2.13387097,42.0785714 L2.84516129,41.8738095 C2.03225806,37.1642857 2.33709677,32.4547619 3.65806452,28.2571429 C4.26774194,26.1071429 5.18225806,24.1619048 6.3,22.2166667 C7.41774194,20.3738095 8.73870968,18.7357143 10.1612903,17.2 C10.6693548,16.6880952 11.0758065,16.2785714 11.583871,15.8690476 L8.53548387,10.9547619 C4.06451613,15.8690476 1.01612903,22.2166667 0.406451613,29.3833333 C6.10622664e-16,33.4785714 0.406451613,37.3690476 1.52419355,41.0547619 C1.62580645,41.4642857 1.82903226,41.7714286 2.03225806,42.1809524 L2.13387097,42.1809524 L2.13387097,42.0785714 Z" id="Path"></path>
                    <path d="M52.4322581,8.90714286 C51.1112903,7.67857143 49.6887097,6.55238095 48.1645161,5.63095238 C44.1,3.07142857 39.4258065,1.43333333 34.4467742,0.921428571 C27.1306452,0.204761905 20.1193548,2.15 14.3274194,6.04047619 L17.883871,11.8761905 C18.6967742,11.5690476 19.5096774,11.1595238 20.3225806,10.9547619 C22.1516129,10.3404762 23.9806452,10.0333333 25.9112903,9.82857143 C27.7403226,9.72619048 29.5693548,9.72619048 31.3983871,10.0333333 C34.9548387,10.647619 38.2064516,12.0809524 40.8483871,14.1285714 C41.1532258,14.4357143 41.5596774,14.6404762 41.8645161,14.947619 L52.4322581,8.90714286 L52.4322581,8.90714286 Z" id="Path"></path>
                    <path d="M62.5935484,35.1166667 C62.3903226,37.5738095 61.8822581,40.0309524 61.0693548,42.2833333 L60.7645161,42.1809524 L45.9290323,37.4714286 C46.5387097,36.447619 47.1483871,35.2190476 47.4532258,33.9904762 C47.8596774,32.7619048 48.0629032,31.3285714 48.1645161,29.997619 C48.1645161,29.4857143 48.1645161,28.8714286 48.1645161,28.3595238 L58.6306452,16.7904762 C61.6790323,22.1142857 63.2032258,28.4619048 62.5935484,35.1166667 Z" id="Path"></path>
                    <path d="M55.5822581,12.9 C55.4806452,12.5928571 55.0741935,12.5928571 54.8709677,12.6952381 L27.5370968,27.95 C27.0290323,28.2571429 26.5209677,28.6666667 26.1145161,29.0761905 C23.9806452,31.4309524 24.183871,35.0142857 26.5209677,37.1642857 C28.8580645,39.3142857 32.4145161,39.1095238 34.5483871,36.7547619 L55.5822581,13.5142857 C55.683871,13.3095238 55.7854839,13.1047619 55.5822581,12.9 Z M29.9758065,36.1404762 C28.35,36.0380952 27.2322581,34.6047619 27.333871,32.9666667 C27.4354839,31.3285714 28.8580645,30.202381 30.483871,30.3047619 C32.1096774,30.4071429 33.2274194,31.8404762 33.1258065,33.4785714 C33.0241935,35.1166667 31.6016129,36.3452381 29.9758065,36.1404762 Z" id="Shape"></path>
                </g>
            </g>
        </g>
    </g>
</svg>