<?xml version="1.0" encoding="UTF-8"?>
<svg width="62px" height="60px" viewBox="0 0 62 60" version="1.1" xmlns="http://www.w3.org/2000/svg" xmlns:xlink="http://www.w3.org/1999/xlink">
    <!-- Generator: Sketch 55 (78076) - https://sketchapp.com -->
    <title>noun_SEO_737036 (1)</title>
    <desc>Created with Sketch.</desc>
    <g id="Plugin-HeartBeat" stroke="none" stroke-width="1" fill="none" fill-rule="evenodd">
        <g id="More-Optimization-V2" transform="translate(-628.000000, -773.000000)" fill="#FFFFFF" fill-rule="nonzero">
            <g id="noun_SEO_737036-(1)" transform="translate(628.000000, 773.000000)">
                <path d="M45.3543478,43.2134831 L45.623913,42.8764045 C49.6673913,38.1573034 51.8913043,32.2247191 51.8913043,26.0224719 C51.8913043,11.7977528 40.3,0.202247191 26.0804348,0.202247191 C11.8608696,0.134831461 0.336956522,11.7303371 0.336956522,26.0224719 C0.336956522,40.3146067 11.9282609,51.8426966 26.1478261,51.8426966 C31.9434783,51.8426966 37.4695652,49.9550562 42.0521739,46.3820225 L42.3217391,46.1797753 L59.3043478,59.8651685 L61.9326087,56.6292135 L45.3543478,43.2134831 Z M26.1478261,47.6629213 C14.2195652,47.6629213 4.51521739,37.9550562 4.51521739,26.0224719 C4.51521739,14.0898876 14.2195652,4.38202247 26.1478261,4.38202247 C38.076087,4.38202247 47.7804348,14.0898876 47.7804348,26.0224719 C47.7804348,37.9550562 38.076087,47.6629213 26.1478261,47.6629213 Z" id="Shape"></path>
                <polygon id="Path" points="11.9282609 33.2359551 15.1630435 36.0674157 21.7673913 28.5168539 27.6304348 32.4269663 35.1782609 24.5393258 38.75 26.7640449 38.076087 16.6516854 28.0347826 20.0898876 31.4717391 22.1797753 27.023913 26.8988764 21.026087 22.8539326"></polygon>
            </g>
        </g>
    </g>
</svg>