<?xml version="1.0" encoding="UTF-8"?>
<svg width="63px" height="60px" viewBox="0 0 63 60" version="1.1" xmlns="http://www.w3.org/2000/svg" xmlns:xlink="http://www.w3.org/1999/xlink">
    <!-- Generator: Sketch 55 (78076) - https://sketchapp.com -->
    <title>noun_revenue_949180</title>
    <desc>Created with Sketch.</desc>
    <g id="Plugin-HeartBeat" stroke="none" stroke-width="1" fill="none" fill-rule="evenodd">
        <g id="More-Optimization-V2" transform="translate(-829.000000, -773.000000)" fill="#FFF7F7" fill-rule="nonzero">
            <g id="noun_revenue_949180" transform="translate(829.000000, 773.000000)">
                <path d="M41.8633406,33.3637713 C41.7631477,32.5200576 41.4737513,31.7087654 41.0160521,30.9884877 C40.4393657,30.0893504 39.683084,29.3148017 38.7930586,28.7118008 C37.4894158,27.8454352 36.0348099,27.2225622 34.5019523,26.8743172 L33.4997831,26.6143805 L32.5887202,26.3902972 L32.5887202,19.8291364 C33.4407748,19.8287711 34.2462176,20.2117746 34.7752711,20.8688832 C35.3704802,21.5769684 35.6930548,22.4687483 35.6863341,23.3875802 L41.0342733,23.3875802 C40.9960349,22.2315757 40.7136937,21.09605 40.2052061,20.0532198 C39.7664835,19.1540695 39.1465563,18.352045 38.3830803,17.6958629 C37.6061552,17.0492059 36.7174013,16.5452201 35.7592191,16.2079494 C34.7336642,15.840164 33.665597,15.5992931 32.5796095,15.4908826 L32.5796095,12.6315789 L30.3475054,12.6315789 L30.3475054,15.4908826 C29.232595,15.5593134 28.1322985,15.776418 27.0767896,16.1362427 C26.0593575,16.4755374 25.1120358,16.991632 24.2798265,17.6600095 C22.5347513,19.0737412 21.5498439,21.2002148 21.6104121,23.4234335 C21.5733161,24.492066 21.7917587,25.5543403 22.2481562,26.5247472 C22.6625998,27.3245796 23.2466827,28.0275964 23.9609544,28.5863141 C24.6968546,29.1523781 25.517426,29.6028966 26.3934924,29.9218509 C27.3045553,30.2534943 28.2156182,30.5492843 29.1266811,30.8181844 C29.3817787,30.8719644 29.6095445,30.9257444 29.8281996,30.9884877 C29.9985747,31.0352335 30.1659103,31.0921058 30.3292842,31.1587911 L30.3292842,38.903112 C29.2196996,38.7047744 28.2041442,38.1612189 27.4321041,37.3524551 C26.6086439,36.4188064 26.2073047,35.1954168 26.3206074,33.9643147 L21,33.9643147 C21.2550976,36.8863617 22.1661605,39.1003053 23.7331887,40.6061455 C25.5513649,42.2051403 27.8910988,43.1112776 30.3292842,43.1606958 L30.3292842,46.3157895 L32.5613883,46.3157895 L32.5613883,43.1875858 C34.1745567,43.1207591 35.7563512,42.7271267 37.2078091,42.0313156 C38.2941166,41.5062662 39.2730725,40.7892365 40.0958785,39.9159687 C41.2379749,38.6834791 41.9108314,37.0997994 42,35.4343016 C41.9928458,34.7421899 41.9472245,34.0509811 41.8633406,33.3637713 L41.8633406,33.3637713 Z M30.3475054,25.8973138 C29.4086814,25.7425588 28.5195628,25.3742456 27.7509761,24.8217137 C27.1968427,24.3385465 26.9008876,23.6304733 26.9492408,22.9035601 C26.9364919,22.437054 27.0331333,21.9739275 27.2316703,21.5500966 C27.4113741,21.1760503 27.6763831,20.8478441 28.0060738,20.5910199 C28.3303887,20.3314501 28.7011889,20.1338472 29.0993492,20.0084031 C29.5015106,19.8905936 29.918786,19.8302217 30.3383948,19.8291364 L30.3475054,25.8973138 Z M36.2694143,36.8236184 C36.0349976,37.2390358 35.7263735,37.6094698 35.3583514,37.9171452 C34.9600422,38.2156374 34.5134378,38.4459352 34.0373102,38.5983586 C33.5796393,38.7533106 33.1061034,38.8585094 32.6251627,38.9120753 L32.6251627,31.7682978 C33.7308193,32.0083882 34.7812988,32.4491439 35.7227766,33.0679813 C36.3610796,33.6064306 36.6996078,34.412424 36.6338395,35.2371082 C36.6557498,35.779638 36.5299369,36.318076 36.2694143,36.7967284 L36.2694143,36.8236184 Z" id="Shape"></path>
                <path d="M61.4656325,44.8693851 L55.2436559,46.3023778 C55.1079893,46.32026 54.9705795,46.32026 54.8349129,46.3023778 C54.494793,46.3034746 54.1611977,46.2086018 53.8720961,46.0285576 C53.4658221,45.7696135 53.178359,45.3592999 53.0727765,44.8876397 L51.6467176,38.6354101 C51.5006878,37.9995374 51.7033432,37.3336821 52.1783456,36.8886653 C52.6533479,36.4436486 53.328533,36.287079 53.9495652,36.4779349 C54.5705974,36.6687908 55.043127,37.1780766 55.1891568,37.8139493 L55.5524839,39.3929795 C59.5142223,28.9094913 56.4442095,17.0549377 47.8995306,9.84185038 C39.3548516,2.62876307 27.2049083,1.63521861 17.6120514,7.36513455 L15.75,4.23445606 C26.8597598,-2.42191695 40.9709766,-1.1352787 50.7069916,7.42177882 C60.4430066,15.9788363 63.5906621,29.8611519 58.5045166,41.8117253 L60.6572297,41.3188488 C61.3070568,41.1212806 62.0122869,41.3043126 62.4856278,41.7933822 C62.9589687,42.2824519 63.1214169,42.9959306 62.9067953,43.6431658 C62.6921736,44.2904009 62.1363037,44.7633651 61.4656325,44.8693851 L61.4656325,44.8693851 Z" id="Path"></path>
                <path d="M47.25,55.9132169 C36.0455351,62.4356658 21.9081849,61.0501379 12.1915228,52.4773187 C2.47486063,43.9044994 -0.626296859,30.0808322 4.50112409,18.1967273 L2.23483054,18.7161378 C1.25067864,18.9400918 0.270800945,18.3260835 0.0462124354,17.3447119 C-0.178376075,16.3633403 0.437371692,15.3862308 1.42152358,15.1622767 L7.68124569,13.7316198 C8.15330301,13.6221097 8.64965163,13.7040545 9.06112603,13.9594314 C9.4698834,14.2198084 9.76143149,14.6281293 9.87443299,15.0984895 L11.309143,21.34964 C11.5306835,22.3309213 10.9131076,23.3056476 9.92926267,23.5275189 C9.79277308,23.5453719 9.65452965,23.5453719 9.51804005,23.5275189 C8.67006064,23.5238313 7.93600277,22.9389987 7.74521365,22.115087 L7.38882071,20.7391049 C3.42724111,31.1713763 6.49184944,42.9608526 15.0367422,50.1604792 C23.5816349,57.3601057 35.7501644,58.4055364 45.4040674,52.7694167 L47.25,55.9132169 Z" id="Path"></path>
            </g>
        </g>
    </g>
</svg>